<svg width="400" height="400" viewBox="0 0 400 400" fill="none" xmlns="http://www.w3.org/2000/svg">
<rect width="400" height="400" rx="64" fill="white"/>
<mask id="path-2-outside-1_747_57" maskUnits="userSpaceOnUse" x="142" y="119" width="124" height="210" fill="black">
<rect fill="white" x="142" y="119" width="124" height="210"/>
<path d="M231.8 188.9V173.9C231.8 158.3 222.5 150.5 203.9 150.5C185.3 150.5 176 158.3 176 173.9V311.6C176 316.2 172 318.5 164 318.5C156 318.5 152 316.2 152 311.6V176.9C152 160.3 156.7 148.3 166.1 140.9C175.7 133.3 188.3 129.5 203.9 129.5C238.5 129.5 255.8 145.1 255.8 176.3V188.9C255.8 193.5 251.8 195.8 243.8 195.8C235.8 195.8 231.8 193.5 231.8 188.9Z"/>
</mask>
<path d="M231.8 188.9V173.9C231.8 158.3 222.5 150.5 203.9 150.5C185.3 150.5 176 158.3 176 173.9V311.6C176 316.2 172 318.5 164 318.5C156 318.5 152 316.2 152 311.6V176.9C152 160.3 156.7 148.3 166.1 140.9C175.7 133.3 188.3 129.5 203.9 129.5C238.5 129.5 255.8 145.1 255.8 176.3V188.9C255.8 193.5 251.8 195.8 243.8 195.8C235.8 195.8 231.8 193.5 231.8 188.9Z" fill="#5358E6"/>
<path d="M166.1 140.9L172.286 148.757L172.296 148.749L172.307 148.74L166.1 140.9ZM241.8 188.9V173.9H221.8V188.9H241.8ZM241.8 173.9C241.8 164.052 238.781 155.003 231.251 148.688C224.058 142.655 214.355 140.5 203.9 140.5V160.5C212.045 160.5 216.292 162.245 218.399 164.012C220.169 165.497 221.8 168.148 221.8 173.9H241.8ZM203.9 140.5C193.445 140.5 183.742 142.655 176.549 148.688C169.019 155.003 166 164.052 166 173.9H186C186 168.148 187.631 165.497 189.401 164.012C191.508 162.245 195.755 160.5 203.9 160.5V140.5ZM166 173.9V311.6H186V173.9H166ZM166 311.6C166 311.263 166.087 310.486 166.599 309.603C167.109 308.723 167.735 308.267 168.015 308.106C168.233 307.981 168.109 308.105 167.368 308.248C166.644 308.386 165.55 308.5 164 308.5V328.5C168.631 328.5 173.728 327.892 177.985 325.444C183.075 322.517 186 317.493 186 311.6H166ZM164 308.5C162.45 308.5 161.356 308.386 160.632 308.248C159.891 308.105 159.767 307.981 159.985 308.106C160.265 308.267 160.891 308.723 161.401 309.603C161.913 310.486 162 311.263 162 311.6H142C142 317.493 144.925 322.517 150.015 325.444C154.272 327.892 159.369 328.5 164 328.5V308.5ZM162 311.6V176.9H142V311.6H162ZM162 176.9C162 162.107 166.135 153.599 172.286 148.757L159.914 133.043C147.265 143.001 142 158.493 142 176.9H162ZM172.307 148.74C179.705 142.884 189.926 139.5 203.9 139.5V119.5C186.674 119.5 171.695 123.716 159.893 133.06L172.307 148.74ZM203.9 139.5C219.899 139.5 230.032 143.129 236.128 148.627C242.028 153.947 245.8 162.524 245.8 176.3H265.8C265.8 158.876 260.922 144.053 249.522 133.773C238.318 123.671 222.501 119.5 203.9 119.5V139.5ZM245.8 176.3V188.9H265.8V176.3H245.8ZM245.8 188.9C245.8 188.563 245.887 187.786 246.399 186.903C246.909 186.023 247.535 185.567 247.815 185.406C248.033 185.281 247.909 185.405 247.168 185.548C246.444 185.686 245.35 185.8 243.8 185.8V205.8C248.431 205.8 253.528 205.192 257.785 202.744C262.876 199.817 265.8 194.793 265.8 188.9H245.8ZM243.8 185.8C242.25 185.8 241.156 185.686 240.432 185.548C239.691 185.405 239.567 185.281 239.785 185.406C240.065 185.567 240.691 186.023 241.201 186.903C241.713 187.786 241.8 188.563 241.8 188.9H221.8C221.8 194.793 224.725 199.817 229.815 202.744C234.072 205.192 239.169 205.8 243.8 205.8V185.8Z" fill="#5358E6" mask="url(#path-2-outside-1_747_57)"/>
<path d="M300.549 128H290.253C285.091 128 281.365 126.944 279.077 124.832C276.789 122.72 275.645 119.141 275.645 114.096V113.392C275.645 108.405 276.672 104.973 278.725 103.096C280.779 101.219 284.445 100.016 289.725 99.488L304.949 97.992V88.224C304.949 83.648 300.96 81.36 292.981 81.36H280.925C279.752 81.36 279.165 80.3333 279.165 78.28C279.165 76.2267 279.752 75.2 280.925 75.2H292.981C298.731 75.2 303.336 76.3147 306.797 78.544C310.259 80.7147 311.989 84.2347 311.989 89.104V115.064C311.989 118.877 312.664 121.899 314.013 124.128C314.424 124.832 314.629 125.272 314.629 125.448C314.629 126.152 314.072 126.915 312.957 127.736C311.843 128.499 310.904 128.88 310.141 128.88C308.851 128.88 307.648 127.677 306.533 125.272C305.477 122.808 304.949 119.699 304.949 115.944V104.152L290.253 105.648C287.085 106 285.032 106.704 284.093 107.76C283.155 108.816 282.685 110.693 282.685 113.392V114.096C282.685 116.912 283.155 118.907 284.093 120.08C285.091 121.253 287.144 121.84 290.253 121.84H300.549C301.723 121.84 302.309 122.867 302.309 124.92C302.309 126.973 301.723 128 300.549 128ZM338.349 76.784V117.704C338.349 119.581 338.789 121.341 339.669 122.984C340.549 124.568 340.989 125.389 340.989 125.448C340.989 126.152 340.432 126.915 339.317 127.736C338.202 128.499 337.264 128.88 336.501 128.88C335.269 128.88 334.096 127.824 332.981 125.712C331.866 123.541 331.309 121.165 331.309 118.584V76.784C331.309 75.4347 332.482 74.76 334.829 74.76C337.176 74.76 338.349 75.4347 338.349 76.784ZM338.613 58.04V65.696C338.613 67.1627 337.322 67.896 334.741 67.896C332.218 67.896 330.957 67.1627 330.957 65.696V58.04C330.957 56.5733 332.218 55.84 334.741 55.84C337.322 55.84 338.613 56.5733 338.613 58.04Z" fill="#5358E6"/>
</svg>
